<svg width="21" height="20" viewBox="0 0 21 20" xmlns="http://www.w3.org/2000/svg"><title>i_like_ic</title><defs><filter x="-50%" y="-50%" width="200%" height="200%" filterUnits="objectBoundingBox" id="a"><feOffset dy="1" in="SourceAlpha" result="shadowOffsetOuter1"/><feGaussianBlur stdDeviation="1" in="shadowOffsetOuter1" result="shadowBlurOuter1"/><feColorMatrix values="0 0 0 0 0 0 0 0 0 0 0 0 0 0 0 0 0 0 0.1 0" in="shadowBlurOuter1" result="shadowMatrixOuter1"/><feMerge><feMergeNode in="shadowMatrixOuter1"/><feMergeNode in="SourceGraphic"/></feMerge></filter></defs><g transform="translate(2.5 1)" filter="url(#a)" fill="none" fill-rule="evenodd"><circle fill="#FF8F00" cx="8" cy="8" r="8"/><path d="M9.587 5.43c-.638 0-1.21.29-1.586.741a2.067 2.067 0 0 0-2.583-.486 2.043 2.043 0 0 0-1.066 1.791c0 .22.036.432.102.63.353 1.578 2.96 3.567 3.547 3.567.587 0 3.19-1.99 3.545-3.566.065-.199.102-.41.102-.63 0-.772-.43-1.442-1.066-1.792a2.07 2.07 0 0 0-.995-.254z" fill="#FFF"/><circle fill="#FF8F00" cx="9.931" cy="11.034" r="2.207"/><path d="M10.207 10.759v-.83a.272.272 0 0 0-.276-.274.278.278 0 0 0-.276.275v.829h-.829a.272.272 0 0 0-.274.275c0 .148.123.276.274.276h.83v.83c0 .155.123.274.275.274a.278.278 0 0 0 .276-.275v-.829h.829a.272.272 0 0 0 .274-.276.278.278 0 0 0-.274-.275h-.83z" fill="#FFF"/></g></svg>