<svg width="21" height="20" viewBox="0 0 21 20" xmlns="http://www.w3.org/2000/svg"><title>visitors_ic</title><defs><filter x="-50%" y="-50%" width="200%" height="200%" filterUnits="objectBoundingBox" id="a"><feOffset dy="1" in="SourceAlpha" result="shadowOffsetOuter1"/><feGaussianBlur stdDeviation="1" in="shadowOffsetOuter1" result="shadowBlurOuter1"/><feColorMatrix values="0 0 0 0 0 0 0 0 0 0 0 0 0 0 0 0 0 0 0.1 0" in="shadowBlurOuter1" result="shadowMatrixOuter1"/><feMerge><feMergeNode in="shadowMatrixOuter1"/><feMergeNode in="SourceGraphic"/></feMerge></filter></defs><g transform="translate(2.5 1)" filter="url(#a)" fill="none" fill-rule="evenodd"><circle fill="#00B0FF" cx="8" cy="8" r="8"/><path d="M8 8.003c.721 0 1.282-.734 1.282-1.495V6.27c0-.76-.56-1.3-1.282-1.3-.721 0-1.282.54-1.282 1.3v.238c0 .76.56 1.495 1.282 1.495zm-2.569.246c.206 0 .77-.262.77-.808v-.404c0-.545-.406-.808-.77-.808a.772.772 0 0 0-.77.808v.404c0 .546.575.808.77.808zm4.617 1.01l-.002-.011a.858.858 0 0 0-.169-.423 1.643 1.643 0 0 0-.552-.456c-.144-.08-.207-.116-.297-.116-.141 0-.265.108-.474.296l-.19.171c-.006.006-.21.29-.364.29-.153 0-.358-.284-.364-.29l-.19-.171c-.209-.188-.333-.296-.474-.296-.09 0-.17.036-.297.116-.265.163-.441.304-.552.455l-.001.002a.857.857 0 0 0-.168.42l-.002.014c-.006.05-.009.1-.009.154v1.111c0 .359.138.505.514.505h3.086c.38 0 .514-.138.514-.505V9.414c0-.053-.003-.104-.009-.154zm.525-1.01c.206 0 .77-.262.77-.808v-.404c0-.545-.406-.808-.77-.808a.772.772 0 0 0-.77.808v.404c0 .546.575.808.77.808zm-6.102.547a1.088 1.088 0 0 0-.585.972v.504c0 .367.126.506.515.506h1.028V9.263l-.257-.253c-.272-.236-.501-.325-.7-.214zm.958.514c.02.01 0-.229 0 0zm6.685.458a1.09 1.09 0 0 0-.585-.972c-.2-.111-.429-.022-.7.214l-.258.253v1.515h1.028c.39 0 .515-.139.515-.505v-.505zm-1.537-.458c0-.229-.02.01 0 0z" fill="#FFF"/></g></svg>